<svg xmlns="http://www.w3.org/2000/svg" xmlns:xlink="http://www.w3.org/1999/xlink" fill="none" version="1.1" width="16" height="16" viewBox="0 0 16 16"><defs><clipPath id="master_svg0_247_48973"><rect x="0" y="0" width="16" height="16" rx="0"/></clipPath></defs><g clip-path="url(#master_svg0_247_48973)"><path d="M14,6C14,9.8999996,8,16,8,16C8,16,2,9.8999996,2,6C2,2.1000004,4.6999998000000005,0,8,0C11.3000002,0,14,2.0999999,14,6Z" fill="#FF8F1F" fill-opacity="1" style="mix-blend-mode:passthrough"/><g><rect x="3" y="1" width="10" height="10" rx="5" fill="#FFFFFF" fill-opacity="1"/><g><path d="M7.4190001,3.2319999C7.4960001,3.3649997999999997,7.5730002,3.5330000000000004,7.6360002,3.6869997999999997L5.03900003,3.6869997999999997L5.03900003,5.1989999L5.6900001,5.1989999L5.6900001,4.289L10.3240004,4.289L10.3240004,5.1989999L10.9960003,5.1989999L10.9960003,3.6869997999999997L8.4410002,3.6869997999999997C8.3570001,3.4769997999999998,8.2310002,3.2319999,8.1120002,3.0289998000000002L7.4190001,3.2319999ZM9.9880004,5.6049995C9.6170001,5.9619999,9.0500002,6.3959999,8.539,6.739000300000001C8.3850002,6.3889999,8.161,6.0529995,7.860000100000001,5.7589998C8.0210001,5.6469998,8.1750002,5.5279999,8.315000099999999,5.4089999L9.9950004,5.4089999L9.9950004,4.835L5.9910001,4.835L5.9910001,5.4089999L7.4260000999999995,5.4089999C6.7680001,5.8149996,5.865,6.1300001,5.02500004,6.3190002C5.13,6.4449997,5.30500001,6.7110004,5.375,6.8439999C6.0329999999999995,6.654999699999999,6.747,6.3889999,7.3630002,6.0529995C7.4680002000000005,6.1579999999999995,7.566,6.2700005,7.6430001,6.3889999C7.0270002,6.816000000000001,5.865,7.291999799999999,4.99000001,7.4949999C5.10900003,7.6350002,5.24900001,7.8590002000000005,5.31900001,8.013C6.138,7.7539997,7.202000099999999,7.277999899999999,7.9020002,6.823C7.9650002,6.9489994,8.0140002,7.0819998,8.049,7.2150002C7.349,7.824000399999999,5.9840001,8.461,4.87800002,8.713C5.00400001,8.86,5.15100002,9.105,5.22100002,9.266C6.194,8.972,7.3560002,8.419,8.161,7.8310002999999995C8.1960001,8.3,8.0840001,8.685,7.9160001,8.825C7.8040001,8.958,7.670999999999999,8.979,7.4960001,8.979C7.3420000000000005,8.979,7.1110001,8.965,6.859,8.944C6.971000200000001,9.126,7.0340001999999995,9.385,7.0410001,9.567C7.2510002,9.574,7.4680002000000005,9.581,7.622,9.581C7.9650002,9.574,8.1680002,9.518,8.3990002,9.294C8.777000000000001,9,8.945000199999999,8.16,8.721000199999999,7.277999899999999L9.0080004,7.1099996999999995C9.372000199999999,8.097,9.9950004,8.881,10.8630004,9.287C10.954,9.119,11.1500001,8.874,11.2970004,8.748C10.4500003,8.412,9.8270001,7.6560001,9.526,6.7740002C9.876000399999999,6.5360002999999995,10.226000299999999,6.2770004,10.527000000000001,6.0389996L9.9880004,5.6049995Z" fill="#FF8F1F" fill-opacity="1"/></g></g></g></svg>