<svg xmlns="http://www.w3.org/2000/svg" xmlns:xlink="http://www.w3.org/1999/xlink" fill="none" version="1.1" width="16" height="16" viewBox="0 0 16 16"><defs><clipPath id="master_svg0_247_33191"><rect x="0" y="0" width="16" height="16" rx="0"/></clipPath></defs><g clip-path="url(#master_svg0_247_33191)"><path d="M14,6C14,9.8999996,8,16,8,16C8,16,2,9.8999996,2,6C2,2.1000004,4.6999998000000005,0,8,0C11.3000002,0,14,2.0999999,14,6Z" fill="#FF8F1F" fill-opacity="1" style="mix-blend-mode:passthrough"/><g><rect x="3" y="1" width="10" height="10" rx="5" fill="#FFFFFF" fill-opacity="1"/><g><path d="M6.2989999999999995,4.835L6.2989999999999995,5.3809996L10.4570003,5.3809996L10.4570003,4.835L6.2989999999999995,4.835ZM6.243,3.0779996C5.914,4.079,5.32600003,5.0380001,4.64,5.6329999C4.808,5.717,5.102,5.9200001,5.23500001,6.031999600000001C5.6620001,5.612,6.061,5.0380001,6.404,4.3940001L11.0030003,4.3940001L11.0030003,3.8339996000000003L6.6700001,3.8339996000000003C6.7540002,3.638,6.8380001,3.4419999,6.9079999999999995,3.2389998L6.243,3.0779996ZM5.564,5.8499999L5.564,6.423999800000001L9.2880001,6.423999800000001C9.3650002,8.188,9.6240001,9.574,10.6040001,9.574C11.0800004,9.574,11.220000299999999,9.224,11.2690001,8.384C11.1290002,8.293,10.947,8.132,10.814000100000001,7.9849996999999995C10.807000200000001,8.559,10.7720003,8.923,10.6460004,8.923C10.1420002,8.923,9.966999999999999,7.4390000999999994,9.939000100000001,5.8499999L5.564,5.8499999Z" fill="#FF8F1F" fill-opacity="1"/></g></g></g></svg>