<svg xmlns="http://www.w3.org/2000/svg" xmlns:xlink="http://www.w3.org/1999/xlink" fill="none" version="1.1" width="16" height="16" viewBox="0 0 16 16"><defs><clipPath id="master_svg0_247_48995"><rect x="0" y="0" width="16" height="16" rx="0"/></clipPath></defs><g clip-path="url(#master_svg0_247_48995)"><path d="M14,6C14,9.8999996,8,16,8,16C8,16,2,9.8999996,2,6C2,2.1000004,4.6999998000000005,0,8,0C11.3000002,0,14,2.0999999,14,6Z" fill="#FF8F1F" fill-opacity="1" style="mix-blend-mode:passthrough"/><g><rect x="3" y="1" width="10" height="10" rx="5" fill="#FFFFFF" fill-opacity="1"/><g><path d="M5.536,5.059C5.676,5.1429996,5.8440001,5.2550001,5.9840001,5.3599997C5.62,5.5559998,5.23500001,5.71,4.85700002,5.8149996C4.96900001,5.9200001,5.116,6.1090002000000005,5.17900002,6.2349996999999995C6.2290001,5.9060001,7.328000100000001,5.2620001,7.832,4.2820001L7.4610002,4.079L7.3560002,4.1069999L6.8100002,4.1069999L6.8100002,3.8129996999999998L7.993,3.8129996999999998L7.993,3.3999996L6.8100002,3.3999996L6.8100002,3.0919999999999996L6.243,3.0919999999999996L6.243,3.9809998999999996L5.788,3.9039998000000002C5.585,4.2189999,5.22100002,4.5899997,4.72400001,4.8629999C4.83600003,4.9400001,5.00400001,5.1009998,5.088,5.2129998C5.43100005,4.9959998,5.7180001,4.7509999,5.949,4.4849997L7.069,4.4849997C6.8940000999999995,4.7089996,6.6630001,4.9189997,6.3970001,5.1079998C6.243,4.9889998,6.0470001,4.8699999,5.886,4.7789998L5.536,5.059ZM5.9910001,9.553C6.138,9.49,6.383,9.448,8.182000200000001,9.21C8.1890001,9.084,8.217,8.86,8.2520001,8.727L6.74,8.909L6.74,8.251L8.056000000000001,8.251L7.825,8.51C8.6930003,8.79,9.8270001,9.259,10.3870001,9.581L10.744,9.161C10.527000000000001,9.049,10.247000199999999,8.916,9.932000200000001,8.783C10.190999999999999,8.615,10.464000200000001,8.405,10.7090001,8.202L10.2330003,7.901L9.9460001,8.181L9.9460001,6.7460003C10.2750001,6.8649998,10.6040001,6.9559994,10.9260001,7.026C11.0030003,6.8789997,11.171,6.6409997999999995,11.3040004,6.5219994C10.219000300000001,6.333000200000001,9.036000300000001,5.9130001,8.3430002,5.3879995L8.4970002,5.2270002C8.5810003,5.3249998,8.658000000000001,5.4440002,8.7000003,5.5349998C9.0009999,5.4229999,9.2950001,5.283,9.5610003,5.1009998C9.9530001,5.3459997,10.296,5.5909996,10.52,5.8009996L10.933000100000001,5.3809996C10.7020001,5.1849999,10.3800001,4.9679999,10.0160003,4.7509999C10.3800001,4.4219999,10.6670003,4.0159998,10.849,3.5190001000000004L10.4780002,3.3649997999999997L10.3800001,3.3859997L8.2450001,3.3859997L8.2450001,3.848L10.079,3.848C9.932000200000001,4.079,9.7360001,4.2820001,9.5120001,4.4639997C9.204,4.296,8.882,4.1349998,8.588000300000001,4.0089998L8.217,4.3729997C8.4760001,4.4919996,8.756,4.6389999,9.0290003,4.7929997C8.8190002,4.9049997,8.595000299999999,5.0029998,8.3640001,5.073L8.49,5.2129998L7.993,4.954C7.3210001,5.7379999,6.005,6.3400002,4.78,6.647999799999999C4.92000002,6.7880001,5.06700003,6.9980001000000005,5.15100002,7.1520004C5.46600002,7.053999900000001,5.788,6.9419994,6.0960000999999995,6.816000000000001L6.0960000999999995,8.629C6.0960000999999995,8.909,5.9000001,9.028,5.7670001,9.084C5.8580000000000005,9.189,5.9560001,9.42,5.9910001,9.553ZM9.862,8.251C9.7360001,8.37,9.589000200000001,8.489,9.4560003,8.594C9.1410003,8.468,8.812000300000001,8.356,8.5040002,8.251L9.862,8.251ZM9.315999999999999,7.5579996000000005L9.315999999999999,7.8730001000000005L6.74,7.8730001000000005L6.74,7.5579996000000005L9.315999999999999,7.5579996000000005ZM9.315999999999999,7.2360001L6.74,7.2360001L6.74,6.9279995L9.315999999999999,6.9279995L9.315999999999999,7.2360001ZM7.559,6.192999800000001C7.6430001,6.3050003,7.7340002000000005,6.4309998,7.811000099999999,6.557000199999999L6.6630001,6.557000199999999C7.1460001,6.3190002,7.6010001,6.031999600000001,7.9860001,5.71C8.3920002,6.0389996,8.9030004,6.326000199999999,9.4490004,6.557000199999999L8.4410002,6.557000199999999C8.3430002,6.3959999,8.21,6.2069998,8.0910001,6.0669994L7.559,6.192999800000001Z" fill="#FF8F1F" fill-opacity="1"/></g></g></g></svg>