<svg xmlns="http://www.w3.org/2000/svg" xmlns:xlink="http://www.w3.org/1999/xlink" fill="none" version="1.1" width="16" height="16" viewBox="0 0 16 16"><defs><clipPath id="master_svg0_247_48908"><rect x="0" y="0" width="16" height="16" rx="0"/></clipPath></defs><g clip-path="url(#master_svg0_247_48908)"><path d="M14,6C14,9.8999996,8,16,8,16C8,16,2,9.8999996,2,6C2,2.1000004,4.6999998000000005,0,8,0C11.3000002,0,14,2.0999999,14,6Z" fill="#4088FF" fill-opacity="1" style="mix-blend-mode:passthrough"/><g><rect x="3" y="1" width="10" height="10" rx="5" fill="#FFFFFF" fill-opacity="1"/><g><path d="M4.95500001,4.849L4.95500001,5.5209999L6.5650001,5.5209999C6.243,6.8369999,5.571,7.852000200000001,4.71700001,8.419C4.87800002,8.524,5.14399999,8.776,5.25600004,8.93C6.243,8.216,7.0340001999999995,6.8579998,7.3700001,4.9889998L6.9290001,4.8280001L6.8100002,4.849L4.95500001,4.849ZM10.1630001,4.3729997C9.841000099999999,4.835,9.315999999999999,5.4089999,8.8610001,5.8429999C8.6719999,5.5,8.5040002,5.1499996,8.3710001,4.7859998L8.3710001,3.099L7.670999999999999,3.099L7.670999999999999,8.72C7.670999999999999,8.839,7.622,8.874,7.51,8.874C7.391,8.881,7.02,8.881,6.6210001,8.867C6.7260001,9.063,6.8380001,9.399,6.8730001000000005,9.595C7.4260000999999995,9.595,7.8040001,9.574,8.0420001,9.448C8.2870002,9.336,8.3710001,9.126,8.3710001,8.72L8.3710001,6.151C8.972999999999999,7.3409996,9.8060002,8.342,10.8560004,8.895C10.968000400000001,8.699,11.192000400000001,8.426,11.3530002,8.286C10.4850001,7.8940000999999995,9.743,7.187000299999999,9.1760001,6.347000100000001C9.6730003,5.941,10.289,5.3319998,10.7790003,4.7999997L10.1630001,4.3729997Z" fill="#4088FF" fill-opacity="1"/></g></g></g></svg>