<svg xmlns="http://www.w3.org/2000/svg" xmlns:xlink="http://www.w3.org/1999/xlink" fill="none" version="1.1" width="16" height="16" viewBox="0 0 16 16"><defs><clipPath id="master_svg0_247_49417"><rect x="0" y="0" width="16" height="16" rx="0"/></clipPath></defs><g clip-path="url(#master_svg0_247_49417)"><path d="M14,6C14,9.8999996,8,16,8,16C8,16,2,9.8999996,2,6C2,2.1000004,4.6999998000000005,0,8,0C11.3000002,0,14,2.0999999,14,6Z" fill="#01C2FF" fill-opacity="1" style="mix-blend-mode:passthrough"/><g><rect x="3" y="1" width="10" height="10" rx="5" fill="#FFFFFF" fill-opacity="1"/><g><path d="M5.9840001,6.2910004C6.3690001,6.5360002999999995,6.8870001,6.885999699999999,7.1460001,7.0889997000000005L7.5380001,6.675999600000001C7.2650001,6.4729996,6.74,6.1440000999999995,6.3620000999999995,5.927L5.9840001,6.2910004ZM5.921,7.6420002C6.3200001,7.914999999999999,6.852,8.3,7.118,8.538L7.5170002,8.118C7.2440002,7.8940000999999995,6.698,7.529999699999999,6.3130001,7.277999899999999L5.921,7.6420002ZM8.4760001,6.2910004C8.882,6.528999300000001,9.421,6.8789997,9.6940002,7.0889997000000005L10.079,6.661999700000001C9.7920003,6.4589996,9.2390003,6.1370001,8.847000099999999,5.9130001L8.4760001,6.2910004ZM8.3850002,7.6280003C8.7910004,7.8940000999999995,9.351000299999999,8.279,9.638,8.51L10.0300002,8.083C9.7290001,7.8590002000000005,9.1620002,7.5019998999999995,8.763,7.257L8.3850002,7.6280003ZM4.85000002,3.5119996L4.85000002,4.1700001L7.6500001,4.1700001L7.6500001,4.9749999L5.17200005,4.9749999L5.17200005,9.581L5.802,9.581L5.802,5.5909996L7.6500001,5.5909996L7.6500001,9.504L8.3010001,9.504L8.3010001,5.5909996L10.2120004,5.5909996L10.2120004,8.818C10.2120004,8.923,10.177,8.958,10.058000100000001,8.965C9.939000100000001,8.965,9.526,8.972,9.1200004,8.958C9.211,9.119,9.309000000000001,9.378,9.344000300000001,9.546C9.8970003,9.546,10.296,9.539,10.5410004,9.441C10.786000300000001,9.343,10.8630004,9.168,10.8630004,8.825L10.8630004,4.9749999L8.3010001,4.9749999L8.3010001,4.1700001L11.157000100000001,4.1700001L11.157000100000001,3.5119996L4.85000002,3.5119996Z" fill="#01C2FF" fill-opacity="1"/></g></g></g></svg>